<?xml version="1.0" encoding="utf-8"?>
<!-- Generator: Adobe Illustrator 24.2.3, SVG Export Plug-In . SVG Version: 6.00 Build 0)  -->
<svg version="1.1" id="图层_1" xmlns="http://www.w3.org/2000/svg" xmlns:xlink="http://www.w3.org/1999/xlink" x="0px" y="0px"
	 viewBox="0 0 64 64" style="enable-background:new 0 0 64 64;" xml:space="preserve">
<style type="text/css">
	.st0{fill:#FFFFFF;stroke:#000000;stroke-width:1.0416;stroke-miterlimit:10;}
	.st1{stroke:#000000;stroke-width:0.2312;stroke-miterlimit:10;}
	.st2{fill:none;stroke:#000000;stroke-width:0.1806;stroke-miterlimit:10;}
	.st3{fill:none;stroke:#000000;stroke-width:0.2312;stroke-miterlimit:10;}
	.st4{stroke:#000000;stroke-width:0.1752;stroke-miterlimit:10;}
	.st5{fill:#FFFFFF;stroke:#000000;stroke-width:0.1806;stroke-miterlimit:10;}
	.st6{stroke:#000000;stroke-width:0.2316;stroke-miterlimit:10;}
	.st7{stroke:#000000;stroke-width:0.0917;stroke-miterlimit:10;}
</style>
<g>
	<path class="st0" d="M51.05,12.18v25.91c0,0.13,0,0.26,0,0.38c-0.15,6.92-4.22,12.91-10.16,15.94c-2.65,1.36-5.67,2.13-8.89,2.13
		c-3.21,0-6.23-0.77-8.88-2.13c-5.92-3.03-10-8.99-10.16-15.89c0-0.12-0.01-0.24-0.01-0.37V12.18c0-2.6,2.18-4.72,4.87-4.72h28.36
		C48.87,7.46,51.05,9.57,51.05,12.18z"/>
	<path class="st1" d="M23.98,14.06c-3.74,0-6.77,3.03-6.77,6.77c0,3.74,3.03,6.77,6.77,6.77s6.77-3.03,6.77-6.77
		C30.75,17.1,27.72,14.06,23.98,14.06z M23.98,26.13c-2.92,0-5.29-2.37-5.29-5.29c0-2.92,2.37-5.29,5.29-5.29s5.29,2.37,5.29,5.29
		C29.27,23.76,26.9,26.13,23.98,26.13z"/>
	<circle class="st2" cx="23.98" cy="20.84" r="5.29"/>
	<circle class="st3" cx="39.74" cy="20.84" r="5.29"/>
	<path class="st1" d="M43.97,14.06H35.5c-1.4,0-2.54,1.14-2.54,2.54v4.23c0,3.74,3.03,6.77,6.77,6.77c3.74,0,6.77-3.03,6.77-6.77
		V16.6C46.51,15.2,45.37,14.06,43.97,14.06z M39.74,26.13c-2.92,0-5.29-2.37-5.29-5.29c0-2.92,2.37-5.29,5.29-5.29
		c2.92,0,5.29,2.37,5.29,5.29C45.03,23.76,42.66,26.13,39.74,26.13z"/>
	<path class="st4" d="M38.02,31.94l-4.71,5.54c-0.69,0.81-1.94,0.81-2.62,0l-4.71-5.54c-0.95-1.12-0.15-2.84,1.31-2.84h9.41
		C38.17,29.1,38.97,30.82,38.02,31.94z"/>
	<path class="st5" d="M13,38.71c-0.03-0.22-0.05-0.45-0.05-0.68c0-0.08,0-0.15,0-0.22c0,0.08,0,0.15,0.01,0.22
		C12.97,38.26,12.98,38.48,13,38.71z"/>
	<path class="st5" d="M13,38.71c-0.03-0.22-0.05-0.45-0.05-0.68h0.01C12.97,38.26,12.98,38.48,13,38.71z"/>
	<path class="st5" d="M41.02,54.19c0.02-0.01,0.04-0.02,0.06-0.03C41.06,54.16,41.04,54.18,41.02,54.19L41.02,54.19z"/>
	<path class="st5" d="M43.76,52.39c0.48-0.38,0.94-0.78,1.38-1.2C44.7,51.62,44.24,52.02,43.76,52.39z"/>
	<path class="st5" d="M45.14,51.19c0.11-0.11,0.22-0.21,0.33-0.32C45.37,50.98,45.25,51.09,45.14,51.19z"/>
	<path class="st5" d="M46.26,50.03c1.7-1.92,3.03-4.2,3.85-6.7C49.29,45.83,47.97,48.1,46.26,50.03z"/>
	<path class="st5" d="M50.23,42.95c0.11-0.38,0.22-0.76,0.31-1.15C50.45,42.19,50.35,42.57,50.23,42.95z"/>
	<path class="st5" d="M51.05,37.81c0,0.08,0,0.15-0.01,0.22c0,0.23-0.02,0.46-0.03,0.68c0,0.03,0,0.05-0.01,0.08
		c0.02-0.35,0.04-0.7,0.04-1.05C51.05,37.76,51.05,37.78,51.05,37.81z"/>
	<path class="st6" d="M51,37.7c0,0.05,0,0.09,0,0.14c-0.01,0.41-0.03,0.83-0.07,1.23c0,0.05-0.01,0.09-0.01,0.14
		c-0.01,0.08-0.02,0.17-0.03,0.25c0,0.01,0,0.02,0,0.03c-0.01,0.11-0.03,0.22-0.04,0.33c-0.01,0.1-0.03,0.2-0.04,0.3
		c-0.01,0.1-0.03,0.2-0.04,0.3c-0.95,6.03-4.72,11.13-9.93,13.88c-0.13,0.07-0.26,0.13-0.39,0.2V38.03c0-2.91,2.36-5.28,5.28-5.28
		C48.54,32.75,50.83,34.94,51,37.7z"/>
	<path class="st6" d="M13,37.7c0,0.05,0,0.09,0,0.14c0.01,0.41,0.03,0.83,0.07,1.23c0,0.05,0.01,0.09,0.01,0.14
		c0.01,0.08,0.02,0.17,0.03,0.25c0,0.01,0,0.02,0,0.03c0.01,0.11,0.03,0.22,0.04,0.33c0.01,0.1,0.03,0.2,0.04,0.3
		c0.01,0.1,0.03,0.2,0.04,0.3c0.95,6.03,4.72,11.13,9.93,13.88c0.13,0.07,0.26,0.13,0.39,0.2V38.03c0-2.91-2.36-5.28-5.28-5.28
		C15.46,32.75,13.17,34.94,13,37.7z"/>
	<circle class="st7" cx="23.98" cy="20.84" r="4.2"/>
	<circle class="st7" cx="39.74" cy="20.84" r="4.2"/>
</g>
</svg>
